<svg xmlns="http://www.w3.org/2000/svg" viewBox="0 0 128 128" role="img" aria-label="Bandera de Uruguay">
  <defs>
    <clipPath id="clip">
      <circle cx="64" cy="64" r="60" />
    </clipPath>
  </defs>
  <g clip-path="url(#clip)">
    <rect width="128" height="128" fill="#ffffff"/>
    <!-- Franjas azules (simplificadas) -->
    <rect x="0" y="18" width="128" height="10" fill="#0038a8"/>
    <rect x="0" y="38" width="128" height="10" fill="#0038a8"/>
    <rect x="0" y="58" width="128" height="10" fill="#0038a8"/>
    <rect x="0" y="78" width="128" height="10" fill="#0038a8"/>
    <rect x="0" y="98" width="128" height="10" fill="#0038a8"/>

    <!-- Cantón blanco -->
    <rect x="0" y="0" width="54" height="54" fill="#ffffff"/>

    <!-- Sol estilizado -->
    <circle cx="27" cy="27" r="12" fill="#f6b40e" stroke="#c88700" stroke-width="2"/>
    <g fill="none" stroke="#c88700" stroke-width="2" stroke-linecap="round">
      <path d="M27 6 v-8"/>
      <path d="M27 62 v-8"/>
      <path d="M6 27 h-8"/>
      <path d="M62 27 h-8"/>
      <path d="M12 12 l-6 -6"/>
      <path d="M42 42 l-6 -6"/>
      <path d="M42 12 l6 -6"/>
      <path d="M12 42 l6 -6"/>
    </g>
  </g>
  <circle cx="64" cy="64" r="60" fill="none" stroke="#ffffff" stroke-opacity="0.7" stroke-width="2"/>
</svg>
